Coordinates
version=1
nRows=13
nColumns=36
inDegrees=yes

Units are S.I. units (second, meters, Newtons, ...)
If the header above contains a line with 'inDegrees', this indicates whether rotational values are in degrees (yes) or radians (no).

endheader
time	pelvis_tilt	pelvis_list	pelvis_rotation	pelvis_tx	pelvis_ty	pelvis_tz	hip_flexion_r	hip_adduction_r	hip_rotation_r	knee_angle_r	knee_angle_r_beta	ankle_angle_r	subtalar_angle_r	mtp_angle_r	hip_flexion_l	hip_adduction_l	hip_rotation_l	knee_angle_l	knee_angle_l_beta	ankle_angle_l	subtalar_angle_l	mtp_angle_l	lumbar_extension	lumbar_bending	lumbar_rotation	arm_flex_r	arm_add_r	arm_rot_r	elbow_flex_r	pro_sup_r	arm_flex_l	arm_add_l	arm_rot_l	elbow_flex_l	pro_sup_l
     17.93333330	    -29.92106846	      6.72260065	      2.73375616	      0.00723588	      0.56227531	      0.28178481	    106.13404745	     20.55895828	      5.56209059	    101.81038442	      1.77692642	     32.25748326	    -23.35017653	     -7.49999987	    110.94442858	    -18.77345311	      2.08168322	     39.76730901	      0.69407048	      1.58856781	    -34.50702049	     -7.49999987	    -25.01248069	     -4.05623381	     12.91762403	    127.63208085	     -1.89860309	     76.70116141	    120.55153347	     61.14908265	    133.77286798	     -3.44100997	     94.78019410	    107.54610681	     54.75905515
     17.95000000	    -30.14227397	      6.30520659	      2.91711572	      0.00809283	      0.56894418	      0.28016278	    105.43577387	     20.38446269	      5.86546013	    100.62490722	      1.75623594	     32.12202137	    -23.46576663	     -7.49999987	    110.90214639	    -18.04013201	      2.71949120	     40.57879545	      0.70823359	      2.20624837	    -34.46132795	     -7.49999987	    -23.90906908	     -3.64750506	     12.30589399	    126.98502435	     -1.73590892	     76.81375405	    120.80172822	     61.22992159	    133.45277855	     -3.60211316	     95.56349775	    107.83708490	     54.86976352
     17.96666670	    -30.38900280	      6.08751479	      3.15697547	      0.00745378	      0.57728713	      0.27900627	    104.62576017	     20.11785669	      6.43408632	     99.45100461	      1.73574747	     31.64314459	    -23.39905081	     -7.49999987	    110.93069450	    -17.29438728	      2.63588247	     41.26716020	      0.72024782	      2.39283153	    -34.44860873	     -7.49999987	    -23.27259766	     -3.47650227	     11.49752329	    127.46312516	     -1.25271878	     76.60549902	    121.23916752	     61.17033184	    133.36866607	     -3.60411942	     94.96504448	    108.02845734	     54.78981049
     17.98333330	    -30.66545047	      5.83874815	      3.27696070	      0.00903111	      0.58599770	      0.27854802	    103.82897182	     19.96591627	      6.82642578	     98.26461606	      1.71504109	     31.59577581	    -23.42175329	     -7.49999987	    110.88795804	    -16.71106361	      2.77389928	     42.09282189	      0.73465833	      2.61521549	    -34.43907598	     -7.49999987	    -22.51596630	     -3.33937991	     10.84123960	    127.70193821	     -0.68325634	     76.61076859	    121.58533929	     61.16478924	    133.02884463	     -3.42270189	     94.33319083	    108.01586639	     54.98978301
     18.00000000	    -30.91510120	      5.23870134	      3.32796066	      0.01053209	      0.59653727	      0.28075713	    102.89988442	     20.06815746	      7.16192816	     96.75561006	      1.68870397	     30.59736298	    -23.89193422	     -7.49999987	    110.34713239	    -16.34775965	      2.90967042	     42.48049590	      0.74142452	      2.63953761	    -34.42864686	     -7.49999987	    -21.67565618	     -3.02644999	     10.15767527	    127.69716334	     -0.16349002	     76.58173811	    121.61007254	     61.17366190	    132.41242847	     -3.01285043	     93.96172131	    107.89923671	     55.00434369
     18.01666670	    -31.20001779	      4.84488637	      3.17462693	      0.01030222	      0.60436751	      0.27868924	    102.17406080	     20.09825428	      7.33972354	     95.27004838	      1.66277602	     29.74373892	    -24.12703121	     -7.49999987	    109.89021750	    -15.87023803	      3.34795188	     43.31260345	      0.75594754	      2.83772568	    -34.39032924	     -7.49999987	    -20.63942292	     -2.95736539	      9.83628475	    127.70753570	     -0.19780985	     76.12950411	    121.91744967	     61.26708187	    131.41721188	     -3.05301099	     93.37801773	    108.33144963	     55.26028728
     18.03333330	    -31.41804089	      4.51179077	      2.91387627	      0.01463445	      0.61537887	      0.28028239	    101.02500621	     20.25218880	      7.66735018	     93.60838213	      1.63377448	     28.90586982	    -24.32755866	     -7.49999987	    109.15745990	    -15.58828031	      3.80015448	     44.08615514	      0.76944856	      2.68918545	    -34.32099968	     -7.49999987	    -19.73362899	     -3.13082526	      9.59034564	    127.71447319	     -0.29263667	     76.05870458	    122.49232410	     61.52935970	    130.91798610	     -3.17096259	     93.58897230	    109.02059471	     54.90964841
     18.05000000	    -31.51604416	      4.22480735	      2.52523005	      0.01218324	      0.62657475	      0.28158610	     99.80549893	     20.48072852	      8.05865591	     91.90062986	      1.60396858	     27.84238621	    -24.29061203	     -7.49999987	    108.35648626	    -15.35645750	      3.96629040	     44.48988722	      0.77649502	      1.61951391	    -34.26663640	     -7.49999987	    -19.26411321	     -3.38385653	      9.23256526	    128.14272392	      0.10292717	     75.82569366	    122.56546607	     61.65553622	    130.94205365	     -3.34543237	     93.79305138	    108.99475218	     55.03616790
     18.06666670	    -31.46132006	      3.84451088	      2.06518817	      0.01447364	      0.63867046	      0.28344940	     98.34605483	     20.80474106	      8.27393101	     89.92968326	      1.56956907	     27.44672999	    -23.88436386	     -7.49999987	    107.24359038	    -15.33216174	      4.15802849	     44.57574598	      0.77799353	      0.60686261	    -34.19566472	     -7.49999987	    -18.76200598	     -3.54623490	      8.61406163	    128.12483565	      0.64926690	     75.85680775	    122.42591210	     61.66207659	    130.51928281	     -3.70720546	     93.94007766	    108.41586785	     55.05657034
     18.08333330	    -31.63295098	      3.36985840	      1.84385711	      0.01581383	      0.65072087	      0.28278425	     97.18025731	     20.83356883	      8.42905244	     87.89083861	      1.53398452	     25.93591752	    -23.76038889	     -7.49999987	    106.28698868	    -14.95232634	      4.40808129	     44.42488594	      0.77536053	     -1.03056824	    -34.12536864	     -7.49999987	    -18.15025271	     -3.38098420	      8.01187728	    128.16159445	      1.00685256	     75.64832259	    122.43342800	     61.68557881	    130.20788376	     -3.83405072	     93.94151066	    108.26883892	     55.07452140
     18.10000000	    -31.77420324	      2.88433230	      1.84534196	      0.01813357	      0.65950264	      0.28110621	     95.95635141	     20.67520815	      8.69522756	     86.02849861	      1.50148055	     24.19835611	    -24.40473548	     -7.49999987	    105.29064452	    -14.16770426	      4.89947175	     44.70308723	      0.78021606	     -1.14952590	    -33.91575303	     -7.49999987	    -17.17240603	     -3.14550329	      7.39424639	    127.54490180	      0.96779479	     75.46502273	    122.77772475	     62.25141677	    129.15987705	     -3.68342535	     93.55758760	    108.73060811	     54.48882987
     18.11666670	    -31.70570576	      2.57624364	      1.65236847	      0.01997729	      0.67246831	      0.28111049	     94.24415785	     20.61320137	      9.06678067	     84.03604313	      1.46670564	     23.09995333	    -24.24511730	     -7.49999987	    103.79254637	    -13.58771069	      5.44104165	     45.27928934	      0.79027268	     -0.93270141	    -33.50420737	     -7.49999987	    -16.40658627	     -3.02902474	      7.42105615	    126.92279047	      0.87187893	     75.69758211	    123.10501654	     62.44572990	    127.95446533	     -3.69364437	     93.47308882	    109.23232463	     54.77485051
     18.13333330	    -31.63042505	      2.27262008	      1.55952759	      0.02136561	      0.68132345	      0.28195448	     92.75816435	     20.57077968	      9.35678996	     82.16169626	      1.43399212	     21.54965929	    -24.56082216	     -7.49999987	    102.47556971	    -13.05142967	      5.80475059	     46.15720546	      0.80559521	     -0.53997784	    -32.86447810	     -7.49999987	    -15.41580353	     -3.06140896	      7.22069814	    125.96612381	      0.91920404	     76.23990204	    124.03863350	     62.77482223	    126.83801617	     -3.57651465	     93.53687265	    109.83399291	     55.21855717
